<svg width="15" height="18" viewBox="0 0 15 18" fill="none" xmlns="http://www.w3.org/2000/svg">
<path d="M11.8695 8.39189C12.8408 8.74104 13.6364 9.31066 14.1632 10.0755C14.7065 10.8403 14.9782 11.6843 14.9782 12.6486C14.9782 14.2614 14.4514 15.5372 13.3977 16.435C12.3605 17.3162 10.7529 17.7568 8.76079 17.7568H0.1521V0H8.52166C10.3656 0 11.8337 0.423967 12.805 1.2719C13.7764 2.11984 14.2608 3.25828 14.2608 4.62162C14.2608 6.36737 13.4335 7.59384 11.8695 8.39189ZM8.33522 2.76826H3.48593V7.40696H8.33522C9.17485 7.40696 9.81692 7.19913 10.2614 6.78348C10.7224 6.3512 10.9529 5.76097 10.9529 5.01279C10.9529 4.31449 10.7224 3.76583 10.2614 3.3668C9.80046 2.96777 9.15838 2.76826 8.33522 2.76826ZM3.48593 14.9636H8.68095C9.61936 14.9636 10.3355 14.7557 10.8294 14.3401C11.3233 13.9078 11.5703 13.3009 11.5703 12.5195C11.5703 10.8735 10.6072 10.0505 8.68095 10.0505H3.48593V14.9636Z" fill="white"/>
</svg>
