<svg width="14" height="16" viewBox="0 0 14 16" fill="none" xmlns="http://www.w3.org/2000/svg">
<path d="M4.35231 12.0868C4.18175 11.8202 4.03436 11.5824 3.98912 11.1352H0.521729C0.540787 12.0018 0.717622 12.5155 1.04246 13.1577L1.04342 13.1596L1.04445 13.1615C1.38838 13.7847 1.84723 14.3138 2.42021 14.748L2.42198 14.7494L2.42379 14.7507C3.0151 15.1654 3.7001 15.4753 4.47723 15.6814L4.47793 15.6816C5.27654 15.8883 6.06082 16.0001 6.97826 16.0001C7.72707 16.0001 8.56987 15.9068 9.34769 15.738C10.1241 15.5696 10.8268 15.2977 11.4545 14.9218C12.104 14.544 12.6306 14.0521 13.0327 13.4464C13.4388 12.8347 13.6739 12.0041 13.6739 11.1352C13.6739 10.4131 13.4944 9.89113 13.2051 9.39498C12.9354 8.90044 12.5691 8.49074 12.107 8.16702C11.667 7.84567 11.1613 7.59146 10.5913 7.40365C10.0278 7.21798 9.4549 7.06017 8.87267 6.93021L8.87187 6.93004C8.27421 6.80081 7.69516 6.68079 7.13471 6.57C6.58018 6.46037 6.08239 6.33279 5.64097 6.18751C5.22381 6.02586 4.88348 5.83021 4.61705 5.60235C4.38402 5.38773 4.26531 5.10761 4.26531 4.7506C4.26531 4.46189 4.35035 4.24569 4.50983 4.08805L4.51186 4.08604L4.51379 4.08394C4.68703 3.89557 4.89419 3.75906 5.13674 3.67344L5.13886 3.67269L5.14096 3.67186C5.41111 3.56505 5.69011 3.49386 5.97821 3.45823C6.29229 3.42172 6.55769 3.40377 6.77524 3.40377C7.46927 3.40377 8.07577 3.5301 8.59776 3.77919L8.5992 3.77985C9.09676 4.00936 9.44986 4.60439 9.60869 5.2974H13.0505C12.9516 4.50592 12.6598 3.59325 12.3587 3.10821C11.9952 2.52256 11.6129 2.05051 11.0383 1.6906C10.4844 1.33208 9.85566 1.07815 9.15333 0.927832C8.47197 0.759632 7.75378 0.675781 6.99912 0.675781C6.33814 0.675781 5.64068 0.741112 4.90695 0.871285L4.90641 0.871384C4.18529 1.00269 3.51982 1.2374 2.91078 1.57594C2.31681 1.89801 1.81844 2.33395 1.41645 2.88268L1.41599 2.88331C1.02528 3.42398 0.833832 4.09512 0.833832 4.88891C0.833832 5.62198 0.966901 6.25049 1.23914 6.76946L1.24003 6.7711C1.50937 7.26552 1.86609 7.67563 2.30995 7.99992L2.31194 8.00131C2.76943 8.32162 3.27414 8.57565 3.82552 8.7636L3.8267 8.76399C4.39046 8.94974 4.9728 9.10756 5.57368 9.2375C6.15284 9.36677 6.72271 9.48681 7.28329 9.59763C7.83762 9.70722 8.32499 9.84377 8.74617 10.0067L8.74905 10.0078L8.75198 10.0088C9.18704 10.1521 9.53464 10.3473 9.79922 10.5914C10.0542 10.8266 10.1914 11.1283 10.2088 11.5054C10.2263 11.8871 10.13 12.1874 9.92986 12.4182L9.92937 12.4188C9.7388 12.6414 9.48579 12.8151 9.16618 12.9379C8.84046 13.0631 8.48654 13.1531 8.10396 13.2073C7.73488 13.2437 7.40402 13.2618 7.11105 13.2618C6.27219 13.2618 5.64619 13.0916 5.05157 12.7353C4.75538 12.5579 4.52273 12.3532 4.35231 12.0868Z" fill="white"/>
</svg>
