<svg width="16" height="16" viewBox="0 0 16 16" fill="none" xmlns="http://www.w3.org/2000/svg">
<path fill-rule="evenodd" clip-rule="evenodd" d="M1.78155 0.720891C1.48866 0.427997 1.01378 0.427997 0.720891 0.720891C0.427997 1.01378 0.427997 1.48866 0.720891 1.78155L6.93937 8.00003L0.71497 14.2244C0.422077 14.5173 0.422077 14.9922 0.71497 15.2851C1.00786 15.578 1.48274 15.578 1.77563 15.2851L8.00003 9.06069L14.2158 15.2764C14.5087 15.5693 14.9836 15.5693 15.2764 15.2764C15.5693 14.9836 15.5693 14.5087 15.2764 14.2158L9.06069 8.00003L15.2768 1.78395C15.5697 1.49105 15.5697 1.01618 15.2768 0.723285C14.9839 0.430392 14.509 0.430392 14.2161 0.723285L8.00003 6.93937L1.78155 0.720891Z" fill="white"/>
</svg>
