<svg width="1920" height="620" viewBox="0 0 1920 620" fill="none" xmlns="http://www.w3.org/2000/svg">
<path d="M598.017 394.497L473.719 415.306L320 443.484L230.5 455.5L143 491.5L-19 511.5V619.5H1932V0L1724 48L1655.5 39L1600 75L1538.8 120.085L1513.5 126.5L1485.5 120.085H1407.38L1367.06 134.391L1324.5 143.928L1305 169.939L1259.5 185.112L1212 202.886L1187.5 226L1170.5 227.5L1149.5 228.5L1119.5 265H1093.5H1067.5H1040L1003.65 286.987L945.295 303.894L923.946 298.258H908.29L798.698 347.245L765.489 369.787L718.046 372.388L686.26 381.059L598.017 394.497Z" fill="url(#paint0_linear_1_303)"/>
<defs>
<linearGradient id="paint0_linear_1_303" x1="877.374" y1="0" x2="877.374" y2="619.5" gradientUnits="userSpaceOnUse">
<stop stop-color="#50CE61" stop-opacity="0.6"/>
<stop offset="1" stop-color="#50CE61" stop-opacity="0"/>
</linearGradient>
</defs>
</svg>
