<svg width="30" height="24" viewBox="0 0 30 24" fill="none" xmlns="http://www.w3.org/2000/svg">
<path fill-rule="evenodd" clip-rule="evenodd" d="M8.2494 3.79383C8.34386 3.66251 8.44878 3.50174 8.58257 3.28496C8.65754 3.16348 8.93107 2.71102 8.97578 2.63788C10.0811 0.82985 10.8846 0 12.3334 0H17.6667C19.1155 0 19.919 0.82985 21.0243 2.63788C21.069 2.71102 21.3425 3.16348 21.4175 3.28496C21.5513 3.50174 21.6562 3.66251 21.7507 3.79383C21.813 3.88044 21.8674 3.94925 21.9118 4H25.6667C27.8758 4 29.6667 5.79086 29.6667 8V20C29.6667 22.2091 27.8758 24 25.6667 24H4.33337C2.12423 24 0.333374 22.2091 0.333374 20V8C0.333374 5.79086 2.12423 4 4.33337 4H8.0883C8.13269 3.94925 8.1871 3.88044 8.2494 3.79383ZM4.33337 6.66667C3.59699 6.66667 3.00004 7.26362 3.00004 8V20C3.00004 20.7364 3.59699 21.3333 4.33337 21.3333H25.6667C26.4031 21.3333 27 20.7364 27 20V8C27 7.26362 26.4031 6.66667 25.6667 6.66667H21.6667C20.7809 6.66667 20.1835 6.18188 19.5859 5.35101C19.4484 5.15984 19.3121 4.95109 19.1482 4.68545C19.0654 4.55131 18.7878 4.09211 18.7491 4.02878C18.146 3.0423 17.7823 2.66667 17.6667 2.66667H12.3334C12.2177 2.66667 11.854 3.0423 11.251 4.02878C11.2123 4.09211 10.9347 4.55131 10.8519 4.68545C10.6879 4.95109 10.5517 5.15984 10.4142 5.35101C9.81653 6.18188 9.21916 6.66667 8.33337 6.66667H4.33337ZM24.3334 10.6667C25.0698 10.6667 25.6667 10.0697 25.6667 9.33333C25.6667 8.59695 25.0698 8 24.3334 8C23.597 8 23 8.59695 23 9.33333C23 10.0697 23.597 10.6667 24.3334 10.6667ZM15 20C11.3181 20 8.33337 17.0152 8.33337 13.3333C8.33337 9.65144 11.3181 6.66667 15 6.66667C18.6819 6.66667 21.6667 9.65144 21.6667 13.3333C21.6667 17.0152 18.6819 20 15 20ZM15 17.3333C17.2092 17.3333 19 15.5425 19 13.3333C19 11.1242 17.2092 9.33333 15 9.33333C12.7909 9.33333 11 11.1242 11 13.3333C11 15.5425 12.7909 17.3333 15 17.3333Z" fill="#646363"/>
</svg>
